<svg id="Layer_1" data-name="Layer 1" xmlns="http://www.w3.org/2000/svg" viewBox="0 0 148.78 137.39"><defs><style>.cls-1{fill:#59a27a;}.cls-1,.cls-2{stroke:#fff;stroke-miterlimit:10;}.cls-2{fill:none;}</style></defs><path class="cls-1" d="M259.9,294.52a75.29,75.29,0,0,1-8.23,5.29,74.18,74.18,0,0,1-55.3,6.69,72.9,72.9,0,0,1-10.32-3.63,73.1,73.1,0,0,1,2-10.73,74.3,74.3,0,0,1,21-35.08c-.07,1.07-.11,2.16-.11,3.25a50.82,50.82,0,0,0,1.22,11.1A63.54,63.54,0,0,0,198,296a63.62,63.62,0,0,0,17.73,2.5,64.53,64.53,0,0,0,9.59-.72,63.28,63.28,0,0,0,26.27-10.33A76.73,76.73,0,0,0,259.9,294.52Z" transform="translate(-185.51 -174.38)"/><path class="cls-2" d="M225.36,297.74a64.53,64.53,0,0,1-9.59.72A63.62,63.62,0,0,1,198,296a63.54,63.54,0,0,1,12.12-24.55A51,51,0,0,0,225.36,297.74Z" transform="translate(-185.51 -174.38)"/><path class="cls-2" d="M321.76,296a63.62,63.62,0,0,1-17.73,2.5,64.63,64.63,0,0,1-9.59-.72,51,51,0,0,0,15.2-26.33A63.26,63.26,0,0,1,321.76,296Z" transform="translate(-185.51 -174.38)"/><path class="cls-1" d="M288.16,217.92a51.12,51.12,0,0,0-13-6.24,63.93,63.93,0,0,0-15.26-22.86,63.77,63.77,0,0,0-15.25,22.86,64,64,0,0,0-4.32,23.08c0,1.58.06,3.15.18,4.7a71.67,71.67,0,0,0-10.32,3.63,74.08,74.08,0,0,1-.48-8.33c0-.41,0-.82,0-1.23a74,74,0,0,1,21.9-51.42A76.73,76.73,0,0,1,259.9,175a75.78,75.78,0,0,1,8.27,7.11A74.28,74.28,0,0,1,288.16,217.92Z" transform="translate(-185.51 -174.38)"/><path class="cls-2" d="M275.16,211.68a51.1,51.1,0,0,0-30.51,0,63.77,63.77,0,0,1,15.25-22.86A63.93,63.93,0,0,1,275.16,211.68Z" transform="translate(-185.51 -174.38)"/><path class="cls-1" d="M309.64,271.41a50.94,50.94,0,0,1-72.45,34.51,74.1,74.1,0,0,0,14.48-6.11,40.5,40.5,0,0,0,5.09.72q.78.06,1.56.09c.52,0,1.05,0,1.58,0s1.06,0,1.58,0,1-.05,1.56-.09a40.39,40.39,0,0,0,5.1-.72,39.9,39.9,0,0,0,13.39-5.44,40.32,40.32,0,0,0,18.68-32.49A63.88,63.88,0,0,1,309.64,271.41Z" transform="translate(-185.51 -174.38)"/><path class="cls-2" d="M261.48,300.62c-.52,0-1.05,0-1.58,0s-1.06,0-1.58,0c.52,0,1.05,0,1.58,0S261,300.64,261.48,300.62Z" transform="translate(-185.51 -174.38)"/><path class="cls-1" d="M238.27,294.37a63.31,63.31,0,0,1-12.91,3.37,50.79,50.79,0,0,1-16.42-37.43c0-1.09,0-2.18.11-3.25a51,51,0,0,1,22.59-39.14,74.33,74.33,0,0,0-1.91,15.61,40.19,40.19,0,0,0-10.17,26.78c0,.52,0,1.05,0,1.57A40.32,40.32,0,0,0,238.27,294.37Z" transform="translate(-185.51 -174.38)"/><path class="cls-1" d="M310.76,257.06a74.6,74.6,0,0,0-12.59-9.54,40.38,40.38,0,0,0-57-22.94,62.65,62.65,0,0,1,3.5-12.9,51.1,51.1,0,0,1,30.51,0,51.1,51.1,0,0,1,35.6,45.38Z" transform="translate(-185.51 -174.38)"/><path class="cls-2" d="M268.14,299.81a40.39,40.39,0,0,1-5.1.72q-.78.06-1.56.09c-.52,0-1.05,0-1.58,0s-1.06,0-1.58,0-1-.05-1.56-.09a40.5,40.5,0,0,1-5.09-.72,75.29,75.29,0,0,0,8.23-5.29A74.48,74.48,0,0,0,268.14,299.81Z" transform="translate(-185.51 -174.38)"/><path class="cls-2" d="M230.19,243.09a73.66,73.66,0,0,0-8.56,4.43,40.28,40.28,0,0,1,8.1-14c0,.41,0,.82,0,1.23A74.08,74.08,0,0,0,230.19,243.09Z" transform="translate(-185.51 -174.38)"/><path class="cls-2" d="M251.63,287.41a63.73,63.73,0,0,1-13.36,7,40.32,40.32,0,0,1-18.68-32.49,63.3,63.3,0,0,1,12.61-8.06A74.41,74.41,0,0,0,251.63,287.41Z" transform="translate(-185.51 -174.38)"/><path class="cls-1" d="M281.53,294.37a39.9,39.9,0,0,1-13.39,5.44,74.48,74.48,0,0,1-8.24-5.29,76.73,76.73,0,0,1-8.27-7.11,74.41,74.41,0,0,1-19.43-33.59,63.35,63.35,0,0,1,10-3.82,63.61,63.61,0,0,0,17.73,30.69,64.39,64.39,0,0,0,8.27,6.72A63.73,63.73,0,0,0,281.53,294.37Z" transform="translate(-185.51 -174.38)"/><path class="cls-2" d="M289.62,243.09a76.52,76.52,0,0,0,.47-8.33c0-.41,0-.82,0-1.23a40.12,40.12,0,0,1,8.1,14A74.33,74.33,0,0,0,289.62,243.09Z" transform="translate(-185.51 -174.38)"/><path class="cls-2" d="M300.21,261.88a40.32,40.32,0,0,1-18.68,32.49,63.73,63.73,0,0,1-13.36-7,74.32,74.32,0,0,0,19.43-33.59A63.3,63.3,0,0,1,300.21,261.88Z" transform="translate(-185.51 -174.38)"/><path class="cls-1" d="M333.75,302.87a72.9,72.9,0,0,1-10.32,3.63,74.2,74.2,0,0,1-40.82-.58,50.75,50.75,0,0,0,11.83-8.18,64.63,64.63,0,0,0,9.59.72,63.62,63.62,0,0,0,17.73-2.5,63.92,63.92,0,0,0-34.16-42.14,74.32,74.32,0,0,1-19.43,33.59,64.39,64.39,0,0,1-8.27-6.72A63.61,63.61,0,0,0,277.63,250a63.56,63.56,0,0,0-58,11.88c0-.52,0-1.05,0-1.57a40.38,40.38,0,0,1,2.07-12.79,73.66,73.66,0,0,1,8.56-4.43,71.67,71.67,0,0,1,10.32-3.63,74.19,74.19,0,0,1,38.79,0c.11-1.55.17-3.12.17-4.7a63.28,63.28,0,0,0-.82-10.18,40.35,40.35,0,0,1,11.42,8.95c0,.41,0,.82,0,1.23a76.52,76.52,0,0,1-.47,8.33,74.21,74.21,0,0,1,44.13,59.78Z" transform="translate(-185.51 -174.38)"/><path class="cls-2" d="M279.47,234.76c0,1.58-.06,3.15-.17,4.7a74.19,74.19,0,0,0-38.79,0c-.12-1.55-.18-3.12-.18-4.7a63.28,63.28,0,0,1,.82-10.18,40.44,40.44,0,0,1,37.5,0A63.28,63.28,0,0,1,279.47,234.76Z" transform="translate(-185.51 -174.38)"/><path class="cls-2" d="M277.63,250a63.61,63.61,0,0,1-17.73,30.69A63.61,63.61,0,0,1,242.17,250a64.12,64.12,0,0,1,35.46,0Z" transform="translate(-185.51 -174.38)"/></svg>